<svg xmlns="http://www.w3.org/2000/svg" width="300" height="250" viewBox="0 0 300 250"><rect width="300" height="250" fill="#0e0e11"/><g fill="none" stroke="#eceae433" stroke-width="1"><path d="M 0 228.0 H 300"/></g><rect x="22" y="22" width="18" height="18" fill="none" stroke="#eceae4" stroke-width="1.5"/><rect x="27.04" y="27.04" width="7.92" height="7.92" fill="none" stroke="#ff4a2b" stroke-width="1.5"/><text x="48" y="37" fill="#a6a3a9" font-family="Noto Sans Mono, DejaVu Sans Mono, monospace" font-size="8" font-weight="650" text-anchor="start" letter-spacing="1" opacity="1">ISIDE SYSTEMS</text><text x="22" y="105.0" fill="#eceae4" font-family="Noto Sans, Arial, sans-serif" font-size="26.25" font-weight="700" text-anchor="start" letter-spacing="0" opacity="1">Scopri dove l&#x27;AI crea</text><text x="22" y="133.35" fill="#eceae4" font-family="Noto Sans, Arial, sans-serif" font-size="26.25" font-weight="700" text-anchor="start" letter-spacing="0" opacity="1">valore reale.</text><g><path d="M 219.0 135.0 L 171.75 105.75" stroke="#eceae433"/><path d="M 219.0 135.0 L 271.2 118.8" stroke="#eceae433"/><path d="M 219.0 135.0 L 253.2 178.2" stroke="#eceae433"/><path d="M 219.0 135.0 L 178.5 174.6" stroke="#eceae433"/><circle cx="219.0" cy="135.0" r="20.7" fill="none" stroke="#eceae433" stroke-width="1" opacity="0.9"/><circle cx="219.0" cy="135.0" r="30.6" fill="none" stroke="#eceae433" stroke-width="1" opacity="0.72"/><circle cx="219.0" cy="135.0" r="40.5" fill="none" stroke="#ff4a2b" stroke-width="2" opacity="0.54"/><circle cx="171.75" cy="105.75" r="4" fill="#ff4a2b"/><circle cx="271.2" cy="118.8" r="4" fill="#5aa9ff"/><circle cx="253.2" cy="178.2" r="4" fill="#5aa9ff"/><circle cx="178.5" cy="174.6" r="4" fill="#5aa9ff"/><rect x="207.3" y="123.3" width="23.400000000000002" height="23.400000000000002" fill="#0e0e11" stroke="#eceae4" stroke-width="2"/></g><text x="22" y="237.9" fill="#eceae4" font-family="Noto Sans Mono, DejaVu Sans Mono, monospace" font-size="10.75" font-weight="650" text-anchor="start" letter-spacing="0" opacity="1">€1.900 + IVA</text><text x="278" y="237.9" fill="#ff4a2b" font-family="Noto Sans Mono, DejaVu Sans Mono, monospace" font-size="6.75" font-weight="650" text-anchor="end" letter-spacing="1.3" opacity="1">PRENOTA LO SPRINT  →</text></svg>